<svg width="24" height="24" viewBox="0 0 24 24" fill="none" xmlns="http://www.w3.org/2000/svg">
<path d="M24.7397 12.609L26.75 14.6336L17.3736 24.0962L12.391 19.0705L14.4013 17.0459L17.3736 20.0326L24.7397 12.609ZM8.80128 19.0705L13.109 23.3782H-1.25V20.5064C-1.25 17.3331 3.89051 14.7628 10.2372 14.7628L12.951 14.9208L8.80128 19.0705ZM10.2372 0.403846C11.7605 0.403846 13.2214 1.00897 14.2985 2.0861C15.3756 3.16324 15.9808 4.62414 15.9808 6.14744C15.9808 7.67073 15.3756 9.13164 14.2985 10.2088C13.2214 11.2859 11.7605 11.891 10.2372 11.891C8.71388 11.891 7.25298 11.2859 6.17585 10.2088C5.09872 9.13164 4.49359 7.67073 4.49359 6.14744C4.49359 4.62414 5.09872 3.16324 6.17585 2.0861C7.25298 1.00897 8.71388 0.403846 10.2372 0.403846Z" fill="#AE01FF"/>
</svg>
