<svg id="Layer_1" data-name="Layer 1" xmlns="http://www.w3.org/2000/svg" viewBox="0 0 633.06 126.61"><path d="M38.73,53.2,63.32,28.62l24.6,24.6,14.3-14.31L63.32,0,24.42,38.9Z"/><path d="M0,63.31,14.3,49,28.61,63.31,14.3,77.61Z"/><path d="M38.73,73.41,63.32,98l24.6-24.6,14.31,14.29h0l-38.9,38.91L24.42,87.72l0,0Z"/><path d="M98,63.31,112.3,49l14.31,14.3L112.3,77.62Z"/><path d="M77.83,63.3,63.32,48.78,52.59,59.51l-1.24,1.23-2.54,2.54,0,0,0,0,14.51,14.5L77.83,63.31h0Z"/><path d="M148.93,30.68h31.12q11.58,0,17.52,6A15.55,15.55,0,0,1,202.16,48v.19a17.13,17.13,0,0,1-.71,5.08,16,16,0,0,1-1.91,4,14.68,14.68,0,0,1-2.76,3.12,18.07,18.07,0,0,1-3.39,2.3,22.68,22.68,0,0,1,9.17,6q3.33,3.8,3.34,10.5v.19a17.57,17.57,0,0,1-1.77,8.06,15.81,15.81,0,0,1-5.07,5.76,24.18,24.18,0,0,1-7.95,3.45,42.51,42.51,0,0,1-10.29,1.15H148.93Zm28,27.14a15.41,15.41,0,0,0,7.77-1.68,5.83,5.83,0,0,0,2.86-5.42v-.19a5.94,5.94,0,0,0-2.49-5.13q-2.49-1.77-7.19-1.77H163.32V57.82Zm3.93,27.05a14.18,14.18,0,0,0,7.7-1.77,6.1,6.1,0,0,0,2.78-5.52v-.19a6.32,6.32,0,0,0-2.59-5.32q-2.58-2-8.34-2H163.32v14.8Z"/><path d="M224.44,30.68h14.77V97.82H224.44Z"/><path d="M261.56,30.68h13.62L306.66,72V30.68h14.58V97.82H308.67L276.16,55.14V97.82h-14.6Z"/><path d="M366,30.2h13.6l28.77,67.62H392.91l-6.14-15.06H358.38l-6.14,15.06H337.18ZM381.5,69.72l-8.94-21.78-8.9,21.78Z"/><path d="M424.3,30.68h13.62L469.38,72V30.68H484V97.82H471.39L438.88,55.14V97.82H424.3Z"/><path d="M537.12,99a34.88,34.88,0,0,1-13.72-2.68A33.13,33.13,0,0,1,505.27,78a35.43,35.43,0,0,1-2.59-13.53v-.19a34.79,34.79,0,0,1,9.79-24.51,33.15,33.15,0,0,1,11-7.48,35.93,35.93,0,0,1,14.19-2.73,45,45,0,0,1,8.58.77,35.61,35.61,0,0,1,7.06,2.11,30.75,30.75,0,0,1,5.85,3.26,40.3,40.3,0,0,1,5,4.22l-9.39,10.84a36,36,0,0,0-8-5.57,20.46,20.46,0,0,0-9.16-2,18.54,18.54,0,0,0-14,6.14,21,21,0,0,0-4,6.67,22.65,22.65,0,0,0-1.43,8.11v.19a23.08,23.08,0,0,0,1.43,8.1,21.1,21.1,0,0,0,4,6.71,18.44,18.44,0,0,0,14,6.24,20.53,20.53,0,0,0,9.73-2.11,37.87,37.87,0,0,0,7.91-5.76l9.4,9.5a48.84,48.84,0,0,1-5.37,5,32.27,32.27,0,0,1-6.09,3.79,31.38,31.38,0,0,1-7.24,2.39A43.25,43.25,0,0,1,537.12,99Z"/><path d="M582,30.68h50.53V43.82h-36V57.44h31.7V70.58H596.61v14.1h36.45V97.82h-51Z"/></svg>