<svg id="Layer_1" data-name="Layer 1" xmlns="http://www.w3.org/2000/svg" viewBox="0 0 306.51 64"><defs><style>.cls-1{fill:#fff;}</style></defs><path d="M63,39.74A32,32,0,1,1,39.73,1,32,32,0,0,1,63,39.74Z"/><path class="cls-1" d="M46.11,27.44c.63-4.26-2.61-6.55-7-8.07l1.44-5.77L37,12.72l-1.4,5.62c-.92-.23-1.87-.45-2.81-.66L34.19,12l-3.51-.88-1.44,5.77L27,16.39v0l-4.85-1.21-.93,3.75s2.6.6,2.55.64a1.87,1.87,0,0,1,1.64,2l-1.64,6.57a1.88,1.88,0,0,1,.36.12l-.37-.1-2.29,9.21a1.28,1.28,0,0,1-1.61.83c0,.05-2.56-.63-2.56-.63l-1.74,4,4.57,1.13,2.5.65-1.45,5.83,3.51.88,1.44-5.77q1.42.39,2.79.72L27.5,50.8l3.51.87,1.45-5.82c6,1.13,10.49.68,12.39-4.74,1.53-4.36-.08-6.87-3.23-8.51,2.3-.53,4-2,4.49-5.16Zm-8,11.25c-1.08,4.36-8.42,2-10.8,1.41l1.93-7.73c2.38.6,10,1.77,8.87,6.32Zm1.09-11.31c-1,4-7.1,1.95-9.08,1.46l1.75-7C33.82,22.32,40.2,23.24,39.17,27.38Z"/><path d="M93.78,19.36a15.35,15.35,0,0,1,6.72,1.38,13.4,13.4,0,0,1,4.7,3.73A15.55,15.55,0,0,1,108,30a25.2,25.2,0,0,1,.89,6.81A27.69,27.69,0,0,1,101.15,56a26.59,26.59,0,0,1-8.43,5.82A25.71,25.71,0,0,1,82.2,64l-2.56,0a38.83,38.83,0,0,1-4.16-.36,47.4,47.4,0,0,1-5-1,24.43,24.43,0,0,1-5-1.78L79.53,2,92.08,0l-5,20.89a19.4,19.4,0,0,1,3.23-1.13,14.45,14.45,0,0,1,3.49-.41ZM83.25,54a10.9,10.9,0,0,0,5.34-1.38A13.9,13.9,0,0,0,92.93,49a18.53,18.53,0,0,0,2.87-5.23,17.8,17.8,0,0,0,1.06-6.08,11.88,11.88,0,0,0-1.3-6.07c-.86-1.45-2.46-2.19-4.78-2.19a14.93,14.93,0,0,0-3,.41,7.24,7.24,0,0,0-3.28,1.7L79.2,53.7l.85.16a4.59,4.59,0,0,0,.77.12,6.86,6.86,0,0,0,1,.05Z"/><path d="M121.86,62.86h-12L120,20.26h12.07Zm5.83-47.79a7.45,7.45,0,0,1-4.54-1.49,5.31,5.31,0,0,1-2-4.58,7.53,7.53,0,0,1,.69-3.19,8.48,8.48,0,0,1,1.83-2.6,9,9,0,0,1,2.63-1.74,8,8,0,0,1,3.2-.65A7.43,7.43,0,0,1,134,2.32a5.33,5.33,0,0,1,2,4.58,7.57,7.57,0,0,1-.68,3.2,8.58,8.58,0,0,1-1.82,2.59,8.86,8.86,0,0,1-2.63,1.74,7.89,7.89,0,0,1-3.2.64Z"/><path d="M142.57,9.65l12.55-1.94L152,20.26h13.44l-2.42,9.88H149.69L146.13,45a17.24,17.24,0,0,0-.57,3.48,6.44,6.44,0,0,0,.41,2.8,3.48,3.48,0,0,0,1.74,1.81,7.86,7.86,0,0,0,3.6.66,18.76,18.76,0,0,0,3.77-.37,26.28,26.28,0,0,0,3.68-1l.9,9.24a43.85,43.85,0,0,1-5.27,1.53,30,30,0,0,1-6.72.65c-3.73,0-6.61-.56-8.67-1.66a9.65,9.65,0,0,1-4.38-4.54A14.46,14.46,0,0,1,133.49,51a43.16,43.16,0,0,1,1.13-7.86l7.95-33.53Z"/><path d="M165,45.85a29.85,29.85,0,0,1,1.78-10.37,25.58,25.58,0,0,1,5.1-8.51,23.87,23.87,0,0,1,8.06-5.74,25.77,25.77,0,0,1,10.57-2.11,28.05,28.05,0,0,1,6.52.69,26.88,26.88,0,0,1,5.22,1.82L198.08,31c-1.08-.44-2.2-.82-3.36-1.17a14.53,14.53,0,0,0-4.25-.53A11.89,11.89,0,0,0,181,33.46q-3.51,4.13-3.52,11.1a11.44,11.44,0,0,0,1.78,6.68q1.78,2.55,6.56,2.55a21.12,21.12,0,0,0,4.54-.49,22.32,22.32,0,0,0,3.89-1.21l.89,9.64a46.6,46.6,0,0,1-5,1.58,27.9,27.9,0,0,1-6.56.68A22.28,22.28,0,0,1,175,62.54a16.14,16.14,0,0,1-5.74-3.93,14.84,14.84,0,0,1-3.29-5.8,23.86,23.86,0,0,1-1-7Z"/><path d="M218.21,64a19.47,19.47,0,0,1-7.46-1.3,13.76,13.76,0,0,1-5.22-3.64,15.72,15.72,0,0,1-3.12-5.55,22.59,22.59,0,0,1-1-7.08,31.32,31.32,0,0,1,1.57-9.72A27.59,27.59,0,0,1,207.6,28a24.81,24.81,0,0,1,7.53-6.36,20.73,20.73,0,0,1,10.2-2.47,19.78,19.78,0,0,1,7.42,1.3A13.94,13.94,0,0,1,238,24.06a15.88,15.88,0,0,1,3.11,5.55,22.36,22.36,0,0,1,1,7.09,32.26,32.26,0,0,1-1.53,9.72,28.14,28.14,0,0,1-4.54,8.75,23.84,23.84,0,0,1-7.49,6.35A21.18,21.18,0,0,1,218.21,64Zm6-34.66a7.65,7.65,0,0,0-4.7,1.53,13.3,13.3,0,0,0-3.39,3.89A19.31,19.31,0,0,0,214,39.9a22.08,22.08,0,0,0-.68,5.3,13,13,0,0,0,1.29,6.32c.87,1.51,2.43,2.27,4.7,2.27a7.54,7.54,0,0,0,4.7-1.54,13.37,13.37,0,0,0,3.4-3.89,19.09,19.09,0,0,0,2.07-5.14,22.61,22.61,0,0,0,.68-5.31,12.92,12.92,0,0,0-1.29-6.32c-.87-1.5-2.44-2.26-4.7-2.26Z"/><path d="M255.24,62.86h-12l10.12-42.6h12.08Zm5.82-47.79a7.4,7.4,0,0,1-4.53-1.49,5.31,5.31,0,0,1-2-4.58,7.53,7.53,0,0,1,.69-3.19A8.63,8.63,0,0,1,257,3.21a9.18,9.18,0,0,1,2.64-1.74,8,8,0,0,1,3.19-.65,7.43,7.43,0,0,1,4.54,1.5,5.33,5.33,0,0,1,2,4.58,7.58,7.58,0,0,1-.7,3.2,8.38,8.38,0,0,1-1.81,2.59,8.86,8.86,0,0,1-2.63,1.74A7.9,7.9,0,0,1,261.06,15.07Z"/><path d="M274.08,22.2c.91-.26,1.92-.58,3-.93s2.34-.67,3.73-1a45.23,45.23,0,0,1,4.61-.73,52.64,52.64,0,0,1,5.79-.29q9.48,0,13.08,5.51t1.26,15.07l-5.51,23H288l5.35-22.52c.32-1.4.58-2.76.77-4.09a9.79,9.79,0,0,0,0-3.48,4.18,4.18,0,0,0-1.5-2.43,5.78,5.78,0,0,0-3.61-.93,23.85,23.85,0,0,0-4.77.49l-7.86,33H264.27Z"/></svg>