<svg width="28" height="28" viewBox="0 0 28 28" fill="none" xmlns="http://www.w3.org/2000/svg">
<path d="M14 2.625C8.11234 2.625 3.5 5.31563 3.5 8.75V19.25C3.5 22.6844 8.11234 25.375 14 25.375C19.8877 25.375 24.5 22.6844 24.5 19.25V8.75C24.5 5.31563 19.8877 2.625 14 2.625ZM22.75 14C22.75 15.0522 21.8881 16.1252 20.3864 16.9444C18.6955 17.8664 16.427 18.375 14 18.375C11.573 18.375 9.30453 17.8664 7.61359 16.9444C6.11188 16.1252 5.25 15.0522 5.25 14V12.18C7.11594 13.8206 10.3064 14.875 14 14.875C17.6936 14.875 20.8841 13.8163 22.75 12.18V14ZM7.61359 5.80563C9.30453 4.88359 11.573 4.375 14 4.375C16.427 4.375 18.6955 4.88359 20.3864 5.80563C21.8881 6.62484 22.75 7.69781 22.75 8.75C22.75 9.80219 21.8881 10.8752 20.3864 11.6944C18.6955 12.6164 16.427 13.125 14 13.125C11.573 13.125 9.30453 12.6164 7.61359 11.6944C6.11188 10.8752 5.25 9.80219 5.25 8.75C5.25 7.69781 6.11188 6.62484 7.61359 5.80563ZM20.3864 22.1944C18.6955 23.1164 16.427 23.625 14 23.625C11.573 23.625 9.30453 23.1164 7.61359 22.1944C6.11188 21.3752 5.25 20.3022 5.25 19.25V17.43C7.11594 19.0706 10.3064 20.125 14 20.125C17.6936 20.125 20.8841 19.0663 22.75 17.43V19.25C22.75 20.3022 21.8881 21.3752 20.3864 22.1944Z" fill="#FDFDFD"/>
</svg>
