<svg width="28" height="28" viewBox="0 0 28 28" fill="none" xmlns="http://www.w3.org/2000/svg">
<path d="M22.75 1.75H5.25C4.76602 1.75 4.375 2.14102 4.375 2.625V25.375C4.375 25.859 4.76602 26.25 5.25 26.25H22.75C23.234 26.25 23.625 25.859 23.625 25.375V2.625C23.625 2.14102 23.234 1.75 22.75 1.75ZM6.34375 3.71875H21.6562V9.40625H6.34375V3.71875ZM21.6562 16.8438H6.34375V11.1562H21.6562V16.8438ZM21.6562 24.2812H6.34375V18.5938H21.6562V24.2812ZM8.3125 6.5625C8.3125 6.85258 8.42773 7.13078 8.63285 7.3359C8.83797 7.54102 9.11617 7.65625 9.40625 7.65625C9.69633 7.65625 9.97453 7.54102 10.1796 7.3359C10.3848 7.13078 10.5 6.85258 10.5 6.5625C10.5 6.27242 10.3848 5.99422 10.1796 5.7891C9.97453 5.58398 9.69633 5.46875 9.40625 5.46875C9.11617 5.46875 8.83797 5.58398 8.63285 5.7891C8.42773 5.99422 8.3125 6.27242 8.3125 6.5625ZM8.3125 14C8.3125 14.2901 8.42773 14.5683 8.63285 14.7734C8.83797 14.9785 9.11617 15.0938 9.40625 15.0938C9.69633 15.0938 9.97453 14.9785 10.1796 14.7734C10.3848 14.5683 10.5 14.2901 10.5 14C10.5 13.7099 10.3848 13.4317 10.1796 13.2266C9.97453 13.0215 9.69633 12.9062 9.40625 12.9062C9.11617 12.9062 8.83797 13.0215 8.63285 13.2266C8.42773 13.4317 8.3125 13.7099 8.3125 14ZM8.3125 21.4375C8.3125 21.7276 8.42773 22.0058 8.63285 22.2109C8.83797 22.416 9.11617 22.5312 9.40625 22.5312C9.69633 22.5312 9.97453 22.416 10.1796 22.2109C10.3848 22.0058 10.5 21.7276 10.5 21.4375C10.5 21.1474 10.3848 20.8692 10.1796 20.6641C9.97453 20.459 9.69633 20.3438 9.40625 20.3438C9.11617 20.3438 8.83797 20.459 8.63285 20.6641C8.42773 20.8692 8.3125 21.1474 8.3125 21.4375Z" fill="#FDFDFD"/>
</svg>
