<svg width="24" height="24" viewBox="0 0 24 24" fill="none" xmlns="http://www.w3.org/2000/svg">
<path d="M11.93 20.4C12.42 20.4 12.8344 20.2306 13.1732 19.8918C13.512 19.553 13.6809 19.1391 13.68 18.65C13.68 18.16 13.5111 17.7456 13.1732 17.4068C12.8353 17.068 12.4209 16.8991 11.93 16.9C11.44 16.9 11.0261 17.0694 10.6882 17.4082C10.3503 17.747 10.1809 18.1609 10.18 18.65C10.18 19.14 10.3494 19.5544 10.6882 19.8932C11.027 20.232 11.4409 20.4009 11.93 20.4ZM10.67 15.01H13.26C13.26 14.24 13.3477 13.6333 13.5232 13.19C13.6987 12.7467 14.1943 12.14 15.01 11.37C15.6167 10.7633 16.095 10.1856 16.445 9.6368C16.795 9.088 16.97 8.42907 16.97 7.66C16.97 6.35333 16.4917 5.35 15.535 4.65C14.5783 3.95 13.4467 3.6 12.14 3.6C10.81 3.6 9.73107 3.95 8.9032 4.65C8.07533 5.35 7.4976 6.19 7.17 7.17L9.48 8.08C9.59667 7.66 9.8594 7.205 10.2682 6.715C10.677 6.225 11.3009 5.98 12.14 5.98C12.8867 5.98 13.4467 6.1844 13.82 6.5932C14.1933 7.002 14.38 7.45093 14.38 7.94C14.38 8.40667 14.24 8.8444 13.96 9.2532C13.68 9.662 13.33 10.0409 12.91 10.39C11.8833 11.3 11.2533 11.9883 11.02 12.455C10.7867 12.9217 10.67 13.7733 10.67 15.01ZM12 26C10.0633 26 8.24333 25.6327 6.54 24.8982C4.83667 24.1637 3.355 23.1659 2.095 21.905C0.835 20.645 -0.162267 19.1633 -0.8968 17.46C-1.63133 15.7567 -1.99907 13.9367 -2 12C-2 10.0633 -1.63227 8.24333 -0.8968 6.54C-0.161333 4.83667 0.835933 3.355 2.095 2.095C3.355 0.835 4.83667 -0.162267 6.54 -0.8968C8.24333 -1.63133 10.0633 -1.99907 12 -2C13.9367 -2 15.7567 -1.63227 17.46 -0.8968C19.1633 -0.161333 20.645 0.835933 21.905 2.095C23.165 3.355 24.1627 4.83667 24.8982 6.54C25.6337 8.24333 26.0009 10.0633 26 12C26 13.9367 25.6323 15.7567 24.8968 17.46C24.1613 19.1633 23.1641 20.645 21.905 21.905C20.645 23.165 19.1633 24.1627 17.46 24.8982C15.7567 25.6337 13.9367 26.0009 12 26ZM12 23.2C15.1267 23.2 17.775 22.115 19.945 19.945C22.115 17.775 23.2 15.1267 23.2 12C23.2 8.87333 22.115 6.225 19.945 4.055C17.775 1.885 15.1267 0.8 12 0.8C8.87333 0.8 6.225 1.885 4.055 4.055C1.885 6.225 0.8 8.87333 0.8 12C0.8 15.1267 1.885 17.775 4.055 19.945C6.225 22.115 8.87333 23.2 12 23.2Z" fill="#AE01FF"/>
</svg>
