<svg width="18" height="10" viewBox="0 0 18 10" fill="none" xmlns="http://www.w3.org/2000/svg">
<path d="M4 2V0H18V2H4ZM4 6V4H18V6H4ZM4 10V8H18V10H4ZM1 2C0.716667 2 0.479333 1.904 0.288 1.712C0.0966668 1.52 0.000666667 1.28267 0 1C0 0.716667 0.0960001 0.479333 0.288 0.288C0.48 0.0966668 0.717333 0.000666667 1 0C1.28333 0 1.521 0.0960001 1.713 0.288C1.905 0.48 2.00067 0.717333 2 1C2 1.28333 1.904 1.521 1.712 1.713C1.52 1.905 1.28267 2.00067 1 2ZM1 6C0.716667 6 0.479333 5.904 0.288 5.712C0.0966668 5.52 0.000666667 5.28267 0 5C0 4.71667 0.0960001 4.47933 0.288 4.288C0.48 4.09667 0.717333 4.00067 1 4C1.28333 4 1.521 4.096 1.713 4.288C1.905 4.48 2.00067 4.71733 2 5C2 5.28333 1.904 5.521 1.712 5.713C1.52 5.905 1.28267 6.00067 1 6ZM1 10C0.716667 10 0.479333 9.904 0.288 9.712C0.0966668 9.52 0.000666667 9.28267 0 9C0 8.71667 0.0960001 8.47933 0.288 8.288C0.48 8.09667 0.717333 8.00067 1 8C1.28333 8 1.521 8.096 1.713 8.288C1.905 8.48 2.00067 8.71733 2 9C2 9.28333 1.904 9.521 1.712 9.713C1.52 9.905 1.28267 10.0007 1 10Z" fill="#AE01FF"/>
</svg>
