<svg width="32" height="29" viewBox="0 0 32 29" fill="none" xmlns="http://www.w3.org/2000/svg">
<path d="M19.1111 8.22222V5.11111C19.1111 4.28599 18.7833 3.49467 18.1999 2.91122C17.6164 2.32778 16.8251 2 16 2H5.11111C4.28599 2 3.49467 2.32778 2.91122 2.91122C2.32778 3.49467 2 4.28599 2 5.11111V23.7778C2 24.6029 2.32778 25.3942 2.91122 25.9777C3.49467 26.5611 4.28599 26.8889 5.11111 26.8889H16C16.8251 26.8889 17.6164 26.5611 18.1999 25.9777C18.7833 25.3942 19.1111 24.6029 19.1111 23.7778V20.6667" stroke="#AE01FF" stroke-width="3.11111" stroke-linecap="round" stroke-linejoin="round"/>
<path d="M11.3334 14.4444H30M30 14.4444L25.3334 9.77778M30 14.4444L25.3334 19.1111" stroke="#AE01FF" stroke-width="3.11111" stroke-linecap="round" stroke-linejoin="round"/>
</svg>
