<svg id="Layer_1" data-name="Layer 1" xmlns="http://www.w3.org/2000/svg" viewBox="0 0 478.99 109.97"><defs><style>.cls-1{fill:none;}.cls-2{fill:#231f20;}</style></defs><rect class="cls-1" width="478.99" height="109.97"/><path class="cls-2" d="M147.21,77.29V76.13h.47V75.9h-1.19v.23H147v1.16Zm2.31,0v-1.4h-.37l-.42,1-.42-1H148v1.4h.26V76.24l.39.91h.27l.39-.92v1.06Zm63-10.18v-15c0-5.66-3.6-9.46-9.41-9.51a9.29,9.29,0,0,0-8.42,4.25,8.78,8.78,0,0,0-7.91-4.25,7.92,7.92,0,0,0-7,3.55V43.17h-5.21V67.11h5.26V53.84c0-4.16,2.3-6.36,5.86-6.36s5.21,2.25,5.21,6.31V67.11h5.26V53.84c0-4.16,2.4-6.36,5.86-6.36s5.26,2.25,5.26,6.31V67.11Zm77.84-23.94h-8.52V35.91h-5.25v7.26h-4.86v4.76h4.86V58.84c0,5.56,2.15,8.87,8.31,8.87a12.25,12.25,0,0,0,6.51-1.85L290,61.4a9.63,9.63,0,0,1-4.61,1.35c-2.6,0-3.46-1.6-3.46-4V47.93h8.52Zm44.43-.6a7.05,7.05,0,0,0-6.31,3.5v-2.9h-5.16V67.11h5.21V53.69c0-4,1.7-6.16,5.1-6.16a8.49,8.49,0,0,1,3.26.6l1.6-4.91a11.11,11.11,0,0,0-3.7-.65Zm-67.17,2.5a17.92,17.92,0,0,0-9.77-2.5c-6.06,0-10,2.9-10,7.66,0,3.91,2.9,6.31,8.26,7.06l2.45.35c2.86.4,4.21,1.15,4.21,2.51,0,1.85-1.9,2.9-5.46,2.9a12.76,12.76,0,0,1-8-2.5l-2.46,4a17.26,17.26,0,0,0,10.37,3.11c6.91,0,10.92-3.26,10.92-7.81,0-4.21-3.15-6.41-8.36-7.17l-2.46-.35c-2.25-.3-4-.75-4-2.35s1.7-2.81,4.55-2.81a15.48,15.48,0,0,1,7.47,2.06Zm139.54-2.5a7.07,7.07,0,0,0-6.31,3.5v-2.9h-5.16V67.11H401V53.69c0-4,1.7-6.16,5.11-6.16a8.56,8.56,0,0,1,3.26.6l1.6-4.91a11.17,11.17,0,0,0-3.71-.65ZM340.1,55.14c0,7.26,5,12.57,12.77,12.57a12.55,12.55,0,0,0,8.61-2.85L359,60.65a10.54,10.54,0,0,1-6.26,2.15c-4.16,0-7.21-3-7.21-7.66s3.05-7.61,7.21-7.66A10.54,10.54,0,0,1,359,49.63l2.5-4.21a12.55,12.55,0,0,0-8.61-2.85c-7.72,0-12.77,5.31-12.77,12.57Zm48.78,0v-12h-5.21v2.9a9.09,9.09,0,0,0-7.56-3.5c-6.71,0-12,5.26-12,12.57s5.26,12.57,12,12.57a9.07,9.07,0,0,0,7.56-3.51v2.91h5.21Zm-19.38,0c0-4.21,2.75-7.66,7.26-7.66,4.31,0,7.21,3.3,7.21,7.66s-2.9,7.66-7.21,7.66c-4.51,0-7.26-3.45-7.26-7.66ZM306.64,42.57c-7,0-11.92,5.11-11.92,12.57S299.83,67.71,307,67.71a14.55,14.55,0,0,0,9.82-3.36l-2.56-3.85a11.41,11.41,0,0,1-7,2.5c-3.36,0-6.41-1.55-7.16-5.86h17.78c0-.65.1-1.3.1-2-.05-7.46-4.66-12.57-11.37-12.57Zm-.1,4.65c3.35,0,5.51,2.11,6.06,5.81H300.18c.55-3.45,2.65-5.81,6.36-5.81Zm130.67,7.92V33.55H432V46.07a9.07,9.07,0,0,0-7.56-3.5c-6.71,0-12,5.26-12,12.57s5.26,12.57,12,12.57A9.05,9.05,0,0,0,432,64.2v2.91h5.21Zm6.09,9.76a1.46,1.46,0,0,1,.6.12,1.86,1.86,0,0,1,.5.32,1.69,1.69,0,0,1,.33.49,1.45,1.45,0,0,1,.12.59,1.48,1.48,0,0,1-.12.59,1.78,1.78,0,0,1-.33.48,1.67,1.67,0,0,1-.5.33,1.46,1.46,0,0,1-.6.12,1.54,1.54,0,0,1-.61-.12,1.41,1.41,0,0,1-.49-.33,1.58,1.58,0,0,1-.33-.48,1.48,1.48,0,0,1-.12-.59,1.45,1.45,0,0,1,.12-.59,1.51,1.51,0,0,1,.33-.49,1.58,1.58,0,0,1,1.1-.44Zm0,2.7a1.14,1.14,0,0,0,.46-.09,1.21,1.21,0,0,0,.37-.25,1.09,1.09,0,0,0,.25-.38,1.22,1.22,0,0,0,0-.92,1.09,1.09,0,0,0-.25-.38,1.05,1.05,0,0,0-.37-.25,1.14,1.14,0,0,0-.46-.09,1.27,1.27,0,0,0-.47.09,1.05,1.05,0,0,0-.37.25,1.09,1.09,0,0,0-.25.38,1.11,1.11,0,0,0,0,.92,1.09,1.09,0,0,0,.25.38,1.21,1.21,0,0,0,.37.25A1.27,1.27,0,0,0,443.3,67.6Zm.09-1.89a.66.66,0,0,1,.42.12.4.4,0,0,1,.15.33.38.38,0,0,1-.12.29.63.63,0,0,1-.33.14l.46.53h-.36l-.43-.53H443v.53h-.3V65.71ZM443,66v.38h.35a.36.36,0,0,0,.19,0,.17.17,0,0,0,0-.28.36.36,0,0,0-.19,0ZM417.83,55.14c0-4.21,2.76-7.66,7.26-7.66,4.31,0,7.22,3.3,7.22,7.66s-2.91,7.66-7.22,7.66c-4.5,0-7.26-3.45-7.26-7.66Zm-175.9,0v-12h-5.21v2.9a9.11,9.11,0,0,0-7.57-3.5c-6.71,0-12,5.26-12,12.57s5.26,12.57,12,12.57a9.09,9.09,0,0,0,7.57-3.51v2.91h5.21Zm-19.39,0c0-4.21,2.76-7.66,7.26-7.66,4.31,0,7.22,3.3,7.22,7.66s-2.91,7.66-7.22,7.66C225.3,62.8,222.54,59.35,222.54,55.14ZM89.2,84.25l.87.72a36,36,0,1,1,0-60c-.29.24-.58.47-.87.72a38.77,38.77,0,0,0,0,58.53ZM114.64,19a35.85,35.85,0,0,0-19.93,6c.3.24.59.47.87.72a38.76,38.76,0,0,1,0,58.53l-.88.72a36,36,0,1,0,19.93-66ZM92.39,26.69c-.46.37-.91.74-1.36,1.13a36,36,0,0,0,0,54.32c.45.39.9.77,1.36,1.13.47-.36.92-.74,1.37-1.13a36,36,0,0,0,0-54.32c-.45-.39-.9-.76-1.37-1.13"/></svg>