<svg width="28" height="28" viewBox="0 0 28 28" fill="none" xmlns="http://www.w3.org/2000/svg">
<path d="M2.33333 7C2.33333 6.38116 2.57916 5.78767 3.01675 5.35008C3.45433 4.9125 4.04782 4.66667 4.66666 4.66667H23.3333C23.9522 4.66667 24.5457 4.9125 24.9832 5.35008C25.4208 5.78767 25.6667 6.38116 25.6667 7V19.8333C25.6667 20.4522 25.4208 21.0457 24.9832 21.4832C24.5457 21.9208 23.9522 22.1667 23.3333 22.1667H17.983L14.8248 25.3248C14.606 25.5435 14.3094 25.6664 14 25.6664C13.6906 25.6664 13.3939 25.5435 13.1752 25.3248L10.017 22.1667H4.66666C4.04782 22.1667 3.45433 21.9208 3.01675 21.4832C2.57916 21.0457 2.33333 20.4522 2.33333 19.8333V7ZM23.3333 7H4.66666V19.8333H10.5C10.8094 19.8334 11.1061 19.9564 11.3248 20.1752L14 22.8503L16.6752 20.1752C16.8939 19.9564 17.1906 19.8334 17.5 19.8333H23.3333V7ZM7 11.0833C7 10.7739 7.12291 10.4772 7.3417 10.2584C7.5605 10.0396 7.85724 9.91667 8.16666 9.91667H19.8333C20.1427 9.91667 20.4395 10.0396 20.6583 10.2584C20.8771 10.4772 21 10.7739 21 11.0833C21 11.3928 20.8771 11.6895 20.6583 11.9083C20.4395 12.1271 20.1427 12.25 19.8333 12.25H8.16666C7.85724 12.25 7.5605 12.1271 7.3417 11.9083C7.12291 11.6895 7 11.3928 7 11.0833ZM7 15.75C7 15.4406 7.12291 15.1438 7.3417 14.925C7.5605 14.7062 7.85724 14.5833 8.16666 14.5833H15.1667C15.4761 14.5833 15.7728 14.7062 15.9916 14.925C16.2104 15.1438 16.3333 15.4406 16.3333 15.75C16.3333 16.0594 16.2104 16.3562 15.9916 16.575C15.7728 16.7937 15.4761 16.9167 15.1667 16.9167H8.16666C7.85724 16.9167 7.5605 16.7937 7.3417 16.575C7.12291 16.3562 7 16.0594 7 15.75Z" fill="#FDFDFD"/>
</svg>
