<svg width="28" height="28" viewBox="0 0 28 28" fill="none" xmlns="http://www.w3.org/2000/svg">
<path d="M2 18V20H6.586L0 26.586L1.414 28L8 21.414V26H10V18H2ZM28 28H20V20H28V28ZM22 26H26V22H22V26ZM18 18H10V10H18V18ZM12 16H16V12H12V16Z" fill="#AE01FF"/>
<path d="M22 15H20V13H22C23.0609 13 24.0783 12.5786 24.8284 11.8284C25.5786 11.0783 26 10.0609 26 9C26 7.93913 25.5786 6.92172 24.8284 6.17157C24.0783 5.42143 23.0609 5 22 5H10V3H22C23.5913 3 25.1174 3.63214 26.2426 4.75736C27.3679 5.88258 28 7.4087 28 9C28 10.5913 27.3679 12.1174 26.2426 13.2426C25.1174 14.3679 23.5913 15 22 15ZM8 8H0V0H8V8ZM2 6H6V2H2V6Z" fill="#AE01FF"/>
</svg>
