<svg width="28" height="28" viewBox="0 0 28 28" fill="none" xmlns="http://www.w3.org/2000/svg">
<path d="M14.098 4.08333C13.0015 4.08345 11.9296 4.40871 11.018 5.018C10.1063 5.62729 9.39583 6.49324 8.97633 7.50633C8.93236 7.61258 8.86789 7.70913 8.78661 7.79047C8.70533 7.8718 8.60882 7.93633 8.50259 7.98037C8.39637 8.02441 8.28252 8.04709 8.16753 8.04713C8.05254 8.04717 7.93867 8.02455 7.83242 7.98058C7.72617 7.93661 7.62962 7.87214 7.54828 7.79086C7.46694 7.70958 7.40242 7.61307 7.35838 7.50684C7.31434 7.40062 7.29165 7.28677 7.29162 7.17178C7.29158 7.05679 7.31419 6.94292 7.35817 6.83667C7.91009 5.50357 8.84497 4.36412 10.0446 3.56242C11.2442 2.76073 12.6546 2.33282 14.0974 2.33282C15.5402 2.33282 16.9507 2.76073 18.1503 3.56242C19.3499 4.36412 20.2847 5.50357 20.8367 6.83667C20.9255 7.05109 20.9255 7.29202 20.8366 7.50643C20.7478 7.72085 20.5774 7.8912 20.363 7.98C20.1486 8.0688 19.9077 8.06879 19.6932 7.97996C19.4788 7.89113 19.3085 7.72076 19.2197 7.50633C18.8002 6.49324 18.0897 5.62729 17.178 5.018C16.2664 4.40871 15.1945 4.08345 14.098 4.08333Z" fill="#FDFDFD"/>
<path d="M14.0992 7C13.5315 7.00004 12.9792 7.18399 12.5249 7.5243C12.0706 7.86461 11.7388 8.34295 11.5792 8.88767C11.5142 9.11045 11.3634 9.29829 11.1599 9.40988C10.9564 9.52146 10.7169 9.54764 10.4942 9.48267C10.2714 9.41769 10.0835 9.26687 9.97196 9.06339C9.86037 8.85992 9.83419 8.62045 9.89917 8.39767C10.1649 7.48957 10.7179 6.69206 11.4751 6.1247C12.2323 5.55733 13.153 5.25066 14.0992 5.25066C15.0454 5.25066 15.9661 5.55733 16.7233 6.1247C17.4805 6.69206 18.0334 7.48957 18.2992 8.39767C18.3641 8.62045 18.338 8.85992 18.2264 9.06339C18.1148 9.26687 17.9269 9.41769 17.7042 9.48267C17.4814 9.54764 17.2419 9.52146 17.0384 9.40988C16.835 9.29829 16.6841 9.11045 16.6192 8.88767C16.4595 8.34295 16.1277 7.86461 15.6734 7.5243C15.2191 7.18399 14.6668 7.00004 14.0992 7Z" fill="#FDFDFD"/>
<path d="M15.2647 9.04167C15.2647 9.35109 15.1418 9.64783 14.923 9.86662C14.7042 10.0854 14.4074 10.2083 14.098 10.2083C13.7886 10.2083 13.4918 10.0854 13.273 9.86662C13.0543 9.64783 12.9313 9.35109 12.9313 9.04167C12.9313 8.73225 13.0543 8.4355 13.273 8.21671C13.4918 7.99792 13.7886 7.875 14.098 7.875C14.4074 7.875 14.7042 7.99792 14.923 8.21671C15.1418 8.4355 15.2647 8.73225 15.2647 9.04167Z" fill="#FDFDFD"/>
<path fill-rule="evenodd" clip-rule="evenodd" d="M4.2595 5.10767C4.14148 4.91203 3.95162 4.77032 3.7305 4.71281C3.50937 4.65531 3.27453 4.68657 3.07615 4.79993C2.87778 4.91329 2.73161 5.09974 2.66889 5.31944C2.60617 5.53915 2.63187 5.77466 2.7405 5.97567L7.15867 13.7083H7C4.79967 13.7083 3.70067 13.7083 3.017 14.392C2.33334 15.0757 2.33334 16.1747 2.33334 18.375C2.33334 20.5753 2.33334 21.6743 3.017 22.358C3.70067 23.0417 4.79967 23.0417 7 23.0417H21C23.2003 23.0417 24.2993 23.0417 24.983 22.358C25.6667 21.6743 25.6667 20.5753 25.6667 18.375C25.6667 16.1747 25.6667 15.0757 24.983 14.392C24.2993 13.7083 23.2003 13.7083 21 13.7083H20.8413L25.2595 5.97567C25.3681 5.77466 25.3938 5.53915 25.3311 5.31944C25.2684 5.09974 25.1222 4.91329 24.9239 4.79993C24.7255 4.68657 24.4906 4.65531 24.2695 4.71281C24.0484 4.77032 23.8585 4.91203 23.7405 5.10767L19.0738 13.2743L18.8172 13.7083H9.19334L8.925 13.2743L4.2595 5.10767ZM7 19.5417C7.30942 19.5417 7.60617 19.4188 7.82496 19.2C8.04375 18.9812 8.16667 18.6844 8.16667 18.375C8.16667 18.0656 8.04375 17.7688 7.82496 17.55C7.60617 17.3312 7.30942 17.2083 7 17.2083C6.69058 17.2083 6.39384 17.3312 6.17505 17.55C5.95625 17.7688 5.83334 18.0656 5.83334 18.375C5.83334 18.6844 5.95625 18.9812 6.17505 19.2C6.39384 19.4188 6.69058 19.5417 7 19.5417ZM11.6667 18.375C11.6667 18.6844 11.5438 18.9812 11.325 19.2C11.1062 19.4188 10.8094 19.5417 10.5 19.5417C10.1906 19.5417 9.89384 19.4188 9.67505 19.2C9.45625 18.9812 9.33334 18.6844 9.33334 18.375C9.33334 18.0656 9.45625 17.7688 9.67505 17.55C9.89384 17.3312 10.1906 17.2083 10.5 17.2083C10.8094 17.2083 11.1062 17.3312 11.325 17.55C11.5438 17.7688 11.6667 18.0656 11.6667 18.375ZM16.3333 17.5C16.1013 17.5 15.8787 17.5922 15.7146 17.7563C15.5505 17.9204 15.4583 18.1429 15.4583 18.375C15.4583 18.6071 15.5505 18.8296 15.7146 18.9937C15.8787 19.1578 16.1013 19.25 16.3333 19.25H21C21.2321 19.25 21.4546 19.1578 21.6187 18.9937C21.7828 18.8296 21.875 18.6071 21.875 18.375C21.875 18.1429 21.7828 17.9204 21.6187 17.7563C21.4546 17.5922 21.2321 17.5 21 17.5H16.3333Z" fill="#FDFDFD"/>
</svg>
