<svg width="28" height="29" viewBox="0 0 28 29" fill="none" xmlns="http://www.w3.org/2000/svg">
<path d="M25.7123 15.1926C25.4838 14.9326 25.3578 14.5983 25.3578 14.2521C25.3578 13.906 25.4838 13.5717 25.7123 13.3116L27.5363 11.2596C27.7373 11.0354 27.8621 10.7533 27.8928 10.4537C27.9235 10.1542 27.8586 9.85265 27.7073 9.59232L24.8572 4.66175C24.7075 4.40171 24.4795 4.19559 24.2057 4.07277C23.9319 3.94995 23.6263 3.91669 23.3325 3.97774L20.6534 4.51925C20.3126 4.58968 19.9577 4.53291 19.6558 4.35965C19.3539 4.18638 19.1258 3.9086 19.0147 3.57874L18.1454 0.970951C18.0498 0.687912 17.8677 0.442076 17.6247 0.268191C17.3818 0.0943062 17.0904 0.0011668 16.7916 0.00193797H11.0916C10.7808 -0.0142817 10.4733 0.071659 10.216 0.246634C9.95867 0.421609 9.7657 0.675999 9.66655 0.970951L8.86854 3.57874C8.75739 3.9086 8.52934 4.18638 8.22744 4.35965C7.92553 4.53291 7.57065 4.58968 7.22976 4.51925L4.47948 3.97774C4.20096 3.93838 3.91702 3.98233 3.66344 4.10405C3.40985 4.22578 3.19796 4.41982 3.05446 4.66175L0.20442 9.59232C0.0493214 9.84974 -0.0204162 10.1496 0.00517787 10.4491C0.0307719 10.7485 0.150387 11.0322 0.346922 11.2596L2.1567 13.3116C2.38515 13.5717 2.51115 13.906 2.51115 14.2521C2.51115 14.5983 2.38515 14.9326 2.1567 15.1926L0.346922 17.2447C0.150387 17.472 0.0307719 17.7557 0.00517787 18.0552C-0.0204162 18.3546 0.0493214 18.6545 0.20442 18.9119L3.05446 23.8425C3.20422 24.1025 3.43226 24.3087 3.70605 24.4315C3.97984 24.5543 4.28542 24.5876 4.57923 24.5265L7.25826 23.985C7.59915 23.9146 7.95404 23.9713 8.25594 24.1446C8.55784 24.3179 8.78589 24.5957 8.89704 24.9255L9.7663 27.5333C9.86545 27.8283 10.0584 28.0826 10.3157 28.2576C10.5731 28.4326 10.8806 28.5185 11.1913 28.5023H16.8914C17.1901 28.5031 17.4816 28.41 17.7245 28.2361C17.9674 28.0622 18.1496 27.8163 18.2452 27.5333L19.1144 24.9255C19.2256 24.5957 19.4536 24.3179 19.7555 24.1446C20.0574 23.9713 20.4123 23.9146 20.7532 23.985L23.4322 24.5265C23.726 24.5876 24.0316 24.5543 24.3054 24.4315C24.5792 24.3087 24.8072 24.1025 24.957 23.8425L27.807 18.9119C27.9583 18.6516 28.0233 18.35 27.9926 18.0505C27.9618 17.751 27.837 17.4689 27.636 17.2447L25.7123 15.1926ZM23.589 17.1022L24.729 18.3847L22.905 21.5482L21.2235 21.2062C20.1971 20.9964 19.1295 21.1708 18.2232 21.6961C17.3169 22.2215 16.6351 23.0614 16.3071 24.0563L15.7656 25.6523H12.1176L11.6046 24.0278C11.2766 23.0329 10.5948 22.193 9.6885 21.6676C8.78222 21.1423 7.71459 20.9679 6.68826 21.1777L5.00673 21.5197L3.15421 18.3704L4.29422 17.0879C4.99527 16.3041 5.38284 15.2894 5.38284 14.2379C5.38284 13.1863 4.99527 12.1716 4.29422 11.3878L3.15421 10.1053L4.97823 6.97028L6.65976 7.31229C7.68608 7.52208 8.75372 7.34774 9.66 6.82236C10.5663 6.29698 11.2481 5.45714 11.5761 4.46225L12.1176 2.85198H15.7656L16.3071 4.4765C16.6351 5.47139 17.3169 6.31123 18.2232 6.83661C19.1295 7.36199 20.1971 7.53633 21.2235 7.32654L22.905 6.98453L24.729 10.1481L23.589 11.4306C22.8958 12.2126 22.5131 13.2214 22.5131 14.2664C22.5131 15.3114 22.8958 16.3202 23.589 17.1022ZM13.9416 8.55205C12.8142 8.55205 11.7122 8.88636 10.7748 9.51269C9.83744 10.139 9.10685 11.0293 8.67542 12.0708C8.24399 13.1124 8.13111 14.2585 8.35105 15.3642C8.57099 16.4699 9.11387 17.4855 9.91104 18.2827C10.7082 19.0799 11.7239 19.6227 12.8296 19.8427C13.9353 20.0626 15.0814 19.9497 16.1229 19.5183C17.1645 19.0869 18.0547 18.3563 18.681 17.4189C19.3074 16.4815 19.6417 15.3795 19.6417 14.2521C19.6417 12.7404 19.0411 11.2905 17.9722 10.2216C16.9032 9.15259 15.4534 8.55205 13.9416 8.55205ZM13.9416 17.1022C13.3779 17.1022 12.8269 16.935 12.3582 16.6218C11.8895 16.3087 11.5242 15.8636 11.3085 15.3428C11.0928 14.822 11.0364 14.249 11.1463 13.6961C11.2563 13.1433 11.5277 12.6354 11.9263 12.2368C12.3249 11.8383 12.8327 11.5668 13.3856 11.4569C13.9384 11.3469 14.5115 11.4033 15.0323 11.619C15.553 11.8347 15.9982 12.2 16.3113 12.6687C16.6245 13.1374 16.7916 13.6884 16.7916 14.2521C16.7916 15.008 16.4914 15.7329 15.9569 16.2674C15.4224 16.8019 14.6975 17.1022 13.9416 17.1022Z" fill="#AE01FF"/>
</svg>
