<svg id="Layer_1" data-name="Layer 1" xmlns="http://www.w3.org/2000/svg" viewBox="0 0 1920 620.07"><path d="M729,11,477.62,610.7h-164L189.92,132.07c-7.51-29.48-14-40.27-36.87-52.69-37.29-20.24-98.87-39.21-153-51L3.68,11h264c33.65,0,63.9,22.41,71.54,61.16l65.33,347L566,11Zm642.59,403.93c.66-158.28-218.88-167-217.37-237.71.47-21.52,21-44.4,65.81-50.25,22.23-2.91,83.48-5.13,153,26.84l27.25-127.17C1362.88,13,1314.85,0,1255.09,0,1101.74,0,993.82,81.52,992.91,198.25c-1,86.34,77,134.52,135.8,163.21,60.47,29.38,80.76,48.26,80.53,74.54-.43,40.24-48.22,58-92.9,58.69-78,1.2-123.22-21.1-159.3-37.87L928.92,588.21c36.25,16.63,103.16,31.14,172.54,31.86,163,0,269.61-80.5,270.11-205.19M1776.51,610.7H1920L1794.75,11H1662.31a70.61,70.61,0,0,0-66,44L1363.47,610.7h162.91l32.35-89.59h199ZM1603.4,398.19,1685.06,173l47,225.18ZM950.66,11,822.37,610.7H667.23L795.57,11Z"/></svg>