<svg width="28" height="23" viewBox="0 0 28 23" fill="none" xmlns="http://www.w3.org/2000/svg">
<path fill-rule="evenodd" clip-rule="evenodd" d="M11.3224 0H15.3753C17.7689 0 19.6651 1.55249e-07 21.1485 0.199256C22.6748 0.405023 23.9107 0.837395 24.8861 1.81153C26.0895 3.01619 26.4737 4.62847 26.613 6.7213C27.3645 7.05079 27.9323 7.75014 27.9935 8.63572C28 8.71516 28 8.79981 28 8.87795V13.9127C28 13.9909 28 14.0755 27.9948 14.1537C27.9323 15.0393 27.3645 15.7399 26.613 16.0707C26.4737 18.1622 26.0895 19.7745 24.8861 20.9792C23.9107 21.9533 22.6748 22.3857 21.1485 22.5914C19.6638 22.7907 17.7689 22.7907 15.3753 22.7907H11.3224C8.92874 22.7907 7.03256 22.7907 5.54921 22.5914C4.02288 22.3857 2.78698 21.9533 1.81153 20.9792C0.837395 20.0037 0.405023 18.7678 0.199256 17.2415C0 15.7568 0 13.862 0 11.4683V11.3224C0 8.92874 0 7.03256 0.199256 5.54921C0.405023 4.02288 0.837395 2.78698 1.81153 1.81153C2.78698 0.837395 4.02288 0.405023 5.54921 0.199256C7.03386 1.55249e-07 8.92874 0 11.3224 0ZM24.6374 16.2791H22.1135C19.32 16.2791 16.9289 14.1589 16.9289 11.3953C16.9289 8.63181 19.32 6.51163 22.1122 6.51163H24.6361C24.4876 4.76521 24.1529 3.84186 23.5031 3.1933C22.9522 2.64242 22.1968 2.31163 20.8867 2.13581C19.5492 1.95609 17.7846 1.95349 15.301 1.95349H11.394C8.91051 1.95349 7.14716 1.95609 5.80707 2.13581C4.49823 2.31163 3.74288 2.64242 3.192 3.1933C2.64112 3.74419 2.31033 4.49953 2.13451 5.80967C1.95479 7.14847 1.95219 8.91181 1.95219 11.3953C1.95219 13.8789 1.95479 15.6435 2.13451 16.9823C2.31033 18.2912 2.64112 19.0465 3.192 19.5974C3.74288 20.1483 4.49823 20.4791 5.80837 20.6549C7.14716 20.8346 8.91051 20.8372 11.394 20.8372H15.301C17.7846 20.8372 19.5492 20.8346 20.888 20.6549C22.1968 20.4791 22.9522 20.1483 23.5031 19.5974C24.1529 18.9488 24.4889 18.0268 24.6374 16.2791ZM5.2093 6.18605C5.2093 5.927 5.31221 5.67856 5.49538 5.49538C5.67856 5.31221 5.927 5.2093 6.18605 5.2093H11.3953C11.6544 5.2093 11.9028 5.31221 12.086 5.49538C12.2692 5.67856 12.3721 5.927 12.3721 6.18605C12.3721 6.4451 12.2692 6.69353 12.086 6.87671C11.9028 7.05988 11.6544 7.16279 11.3953 7.16279H6.18605C5.927 7.16279 5.67856 7.05988 5.49538 6.87671C5.31221 6.69353 5.2093 6.4451 5.2093 6.18605ZM25.622 8.46512H22.1135C20.259 8.46512 18.8824 9.84428 18.8824 11.3953C18.8824 12.9464 20.259 14.3256 22.1122 14.3256H25.6519C25.9202 14.3087 26.0361 14.1276 26.0452 14.0182V8.77247C26.0361 8.66307 25.9202 8.48205 25.6519 8.46642L25.622 8.46512Z" fill="#AE01FF"/>
</svg>
